<svg width="1216" height="209" viewBox="0 0 1216 209" fill="none" xmlns="http://www.w3.org/2000/svg">
<path d="M797.541 45.2285L751.542 204.891H727.397C726.942 203.245 692.034 76.2192 691.593 74.6007L656.986 204.891H632.841L586.842 45.2285H615.226L646.252 165.114L678.483 45.2285H705.9L738.131 165.114L769.157 45.2285H797.541ZM911.17 203.245C836.177 227.495 789.007 156.019 814.603 88.5444C832.19 40.8633 899.819 28.6435 935.525 62.9275C975.155 100.631 966.404 184.607 911.17 203.245ZM901.739 69.3947C861.394 55.5073 834.173 85.8678 835.784 125.659C835.644 149.258 843.408 172.997 865.85 181.923C890.696 192.16 920.271 178.329 927.797 152.25C936.611 124.202 932.645 81.4603 901.739 69.4017V69.3947ZM1089.22 0V204.968H1115.55V0H1089.22ZM395.166 103.223L353.924 45.2285H322.863L379.639 125.063L322.863 204.891H353.924L395.166 146.896L436.407 204.891H467.468L410.693 125.063C410.777 124.944 467.349 45.3966 467.468 45.2285H436.407L395.166 103.223ZM311.169 133.605H187.654C188.04 156.482 199.58 174.93 219.885 182.54C243.596 190.85 272.071 183.268 281.685 159.172H308.934C300.393 190.625 270.565 209.123 237.577 208.773C189.133 210.181 157.974 170.824 159.235 125.365C156.026 35.4751 278.223 8.47114 306.783 94.9275C310.531 106.839 312.01 119.85 311.162 133.612L311.169 133.605ZM283.338 111.148C281.068 49.6777 190.198 49.5376 187.935 111.148H283.338ZM131.033 204.891C130.108 185.98 133.576 95.2358 128.251 78.8608C124.482 64.1747 116.711 52.9149 103.09 47.0012C76.5836 36.5191 40.2467 43.8411 26.3383 70.4247V45.2285H0V204.891H26.3383V118.197C25.9039 88.152 39.6651 65.1206 69.0934 65.2958C98.5217 63.9855 105.669 88.2851 104.688 111.933V204.884H131.026L131.033 204.891ZM1216 45.2285H1184.93L1128.15 125.063L1184.93 204.891H1216L1159.22 125.063L1216 45.2285ZM1031.65 67.1245L1061 67.0895L1060.97 45.2285L1025.67 45.2705C1010.79 45.2845 1001.22 49.2083 995.541 57.6094C990.468 65.1346 988.212 76.6467 988.226 94.9275L988.352 204.968H1014.68L1014.57 93.1338C1014.57 83.8779 1014.98 78.069 1017.14 73.886C1019.56 69.2195 1024.03 67.1315 1031.65 67.1245ZM512.977 186.807C514.147 192.244 515.99 196.126 518.765 199.034C523.971 204.485 532.526 206.608 549.272 206.608H568.8V184.432H555.298C547.037 184.432 542.938 183.205 540.696 180.066C538.461 176.941 538.068 172.065 538.068 162.984V66.5219H568.8V45.2495H538.068V0.0210193H511.372V45.2495H485.763V66.5219H511.372V166.298C511.372 175.211 511.884 181.727 512.977 186.814V186.807Z" fill="#302C2A"/>
</svg>
